<?xml version="1.0" encoding="UTF-8"?> <svg xmlns="http://www.w3.org/2000/svg" viewBox="0 0 135.00 170.87" data-guides="{&quot;vertical&quot;:[],&quot;horizontal&quot;:[]}"><defs></defs><path fill="#e3ceb6" stroke="none" fill-opacity="1" stroke-width="1" stroke-opacity="1" fill-rule="evenodd" id="tSvgc9031e0917" title="Path 1" d="M32.2734 2.1842C32.2429 2.8271 32.5268 2.7712 34.5623 1.7331C36.0979 0.95 36.8164 0.7347 36.6814 1.0975C36.5691 1.3995 36.566 1.6833 36.6747 1.7283C36.7834 1.7732 38.4836 1.4737 40.4533 1.0627C44.9555 0.123 50.4831 -0.2388 54.1538 0.1651C57.9569 0.5839 57.0919 1.1957 53.0642 0.9356C51.3036 0.822 49.0144 0.813 47.9765 0.9154C45.5974 1.1508 39.0768 2.6692 39.0332 2.9985C38.9867 3.3503 39.3899 3.321 44.5085 2.6017C47.031 2.2473 49.5885 2.016 50.1918 2.0879C50.5573 2.1314 50.9228 2.175 51.2883 2.2185C50.9935 2.2878 50.6986 2.3571 50.4038 2.4264C49.9173 2.5409 47.8377 2.9792 45.7823 3.3998C43.7267 3.8202 40.6598 4.5076 38.9669 4.9273C36.1637 5.6219 32.3983 5.6499 31.7811 4.9808C31.4956 4.6718 24.4991 8.28 23.5102 9.2466C22.9639 9.7798 23.2254 9.796 25.0449 9.3399C26.2512 9.038 28.3481 8.3513 29.7049 7.8145C31.0621 7.2777 32.3612 6.912 32.5919 7.0017C32.8223 7.0911 33.6001 7.0081 34.3198 6.8166C38.5229 5.6983 39.2926 6.6687 35.2552 7.996C31.395 9.2651 24.8969 13.654 24.8459 15.0269C24.8326 15.3822 23.5178 17.0438 21.9241 18.7188C17.2371 23.646 9.9161 36.1756 10.0845 38.9812C10.1038 39.3022 9.9611 39.646 9.7675 39.7453C9.3686 39.9499 8.056 44.705 7.1711 49.1489C5.9882 55.0921 5.9179 62.2492 6.96 70.7033C7.2574 73.1167 7.4169 73.6362 8.0106 74.1252C8.6228 74.6289 8.6907 75.0284 8.5534 77.3144C8.3876 80.0755 8.9454 82.4612 9.8095 82.6862C10.2012 82.7882 11.2147 85.3084 14.725 94.9112C18.5352 105.3333 19.0842 107.0403 18.6908 107.2445C18.4397 107.3747 18.1648 107.3462 18.0803 107.1816C17.8786 106.7885 13.2935 95.3653 12.7643 93.938C11.9438 91.7251 11.8818 93.1696 12.6701 96.1344C13.4165 98.9432 13.8341 99.8713 18.0355 108.0604C22.8775 117.4988 25.5523 121.79 28.2924 124.5176C28.9882 125.2107 31.6194 128.0345 34.1392 130.7933C36.6588 133.5523 39.0181 135.9935 39.3827 136.2178C39.7472 136.4429 41.9757 138.4043 44.3347 140.5767C47.6223 143.6043 49.0899 144.7286 50.6203 145.3928C51.7186 145.8694 53.6345 146.9522 54.8777 147.7989C57.9654 149.9019 64.411 153.2354 68.7094 154.9524C70.6668 155.7345 73.4253 156.8355 74.8394 157.3992C77.5701 158.4874 78.095 158.9908 76.1991 158.7033C74.4782 158.4423 74.3522 158.7195 75.8178 159.5419C77.4509 160.4581 79.1567 160.5457 78.7183 159.6913C78.5276 159.3194 78.6219 159.1082 78.9876 159.0891C79.2971 159.073 83.6033 158.8452 88.5569 158.5829C91.5587 158.4239 94.5608 158.2649 97.5629 158.1058C99.3048 157.2869 101.0464 156.4679 102.7882 155.6489C108.6887 152.8745 111.7354 150.7693 113.9767 147.918C114.8014 146.8691 115.8342 145.6944 116.2717 145.3076C117.5058 144.2164 116.6546 145.4635 114.2911 148.2088C113.1524 149.5315 112.1821 150.8284 112.1352 151.0907C112.0837 151.3771 113.2499 150.8162 115.0505 149.6889C117.7457 148.0015 118.1877 147.5692 119.3954 145.4397C120.1345 144.136 120.6749 142.9429 120.5954 142.7879C120.5161 142.6334 120.1561 142.5402 119.7952 142.5813C118.419 142.7367 119.2442 141.2265 122.7323 137.2054C123.5281 136.2879 124.0415 135.1252 124.3371 133.5712C124.5758 132.3141 125.1614 130.3066 125.6375 129.1099C126.9734 125.7529 128.1058 120.5812 129.243 112.6449C129.8141 108.6568 130.3667 105.4396 130.4711 105.4953C130.5753 105.5512 130.7662 107.1746 130.8952 109.1033C131.0238 111.0319 131.2321 112.6645 131.3578 112.7319C131.9166 113.0308 131.8663 105.5727 131.2581 97.897C130.7474 91.4544 130.2067 89.2542 128.5719 86.9673C127.5515 85.5395 127.3929 85.1332 127.271 83.6333C127.1355 81.9698 124.3332 73.514 123.1094 71.0769C122.5553 69.9738 121.6762 69.2104 121.2257 69.4415C121.1107 69.5006 121.2791 70.061 121.6003 70.6867C122.5066 72.4534 124.4736 78.5983 125.4749 82.7905C126.74 88.0899 128.4355 99.421 128.6087 103.7351C129.046 114.6349 126.6812 126.0314 122.3774 133.7671C120.7845 136.6289 115.048 144.8512 114.7536 144.694C114.3048 144.4538 115.0844 142.5067 116.7496 139.7082C119.125 135.7153 119.8619 133.9638 120.3016 131.2675C120.7473 128.534 121.382 126.9691 122.7765 125.1658C123.7012 123.9695 123.9422 123.0453 124.4067 118.9164C124.7068 116.2516 125.1169 111.3014 125.3186 107.9165C125.5203 104.531 125.845 100.8199 126.0399 99.6701C126.5093 96.9039 125.8051 91.502 124.7694 89.9267C124.2324 89.11 123.831 87.7846 123.3859 85.3587C122.4825 80.436 120.7093 74.3009 118.7061 69.1698C116.278 62.9486 111.2168 53.6416 107.0932 47.8125C102.9286 41.9266 101.9455 40.7942 99.116 38.6244C96.6859 36.7609 94.8576 34.8093 93.16 32.267C92.11 30.6939 86.35 26.8937 75.8205 20.8265C73.8494 19.6905 71.7413 18.3342 71.136 17.8128C69.5979 16.4876 64.9491 15.1468 63.6488 15.6536C63.0383 15.8914 61.2839 15.7813 59.3326 15.3827C50.3187 13.5409 43.2056 14.4822 35.2301 18.573C31.5181 20.4764 25.7897 24.5531 24.4699 26.2298C24.2381 26.5245 23.8754 26.4079 23.3408 25.8673C22.8633 25.3842 22.6547 25.0192 22.8099 24.9395C22.9507 24.8671 23.1531 24.9783 23.2598 25.1861C23.5946 25.839 25.4301 24.5954 27.7183 22.165C30.5399 19.1676 35.7089 16.0231 40.2856 14.5196C46.4913 12.4811 54.8015 12.0644 63.2782 13.3667C76.5637 15.4085 89.6065 23.7556 101.8828 38.0746C106.4155 43.361 107.0438 44.0388 106.907 43.4971C106.8432 43.2444 105.4915 41.4076 103.9034 39.4151C101.1336 35.9404 100.0256 34.1589 102.0396 36.4184C102.9769 37.4699 102.9953 37.4724 102.7065 36.5012C102.4572 35.6635 103.0292 36.1165 106.2644 39.3186C108.6011 41.632 110.5356 43.8182 111.1773 44.8705C111.5302 45.4491 111.8831 46.0277 112.236 46.6062C111.7038 46.0363 111.1716 45.4663 110.6393 44.8963C109.6569 43.8436 109.0191 43.369 108.9802 43.6619C108.9182 44.132 112.8842 50.6724 116.4132 55.9197C116.97 56.7475 117.5266 57.5757 118.0835 58.4038C117.7548 57.6177 117.4261 56.8317 117.0975 56.046C116.5551 54.7489 115.61 52.656 114.9973 51.3951C114.0299 49.4047 113.9859 49.2192 114.6633 49.9882C115.132 50.5205 115.5426 50.7254 115.6929 50.5017C115.8301 50.2966 116.0866 50.2481 116.262 50.3938C116.4381 50.5398 118.7445 54.8291 121.3885 59.9252C126.1695 69.1406 126.1976 69.2041 126.5745 71.5764C126.7829 72.8883 127.3469 74.9276 127.8278 76.1088C128.3082 77.2895 128.6893 78.5843 128.6747 78.9857C128.6451 79.7785 129.1345 82.2579 130.0435 85.9209C130.5713 88.0476 130.6252 88.1597 130.6616 87.2121C130.6838 86.6407 130.6903 85.7783 130.6759 85.2954C130.6202 83.3995 131.5083 86.8584 132.3146 91.6777C134.4034 104.1634 134.268 102.8753 134.2184 109.7945C134.2033 111.9026 134.228 114.2324 134.2732 114.972C134.3466 116.1827 134.3864 116.2696 134.6709 115.8453C134.9406 115.4424 134.9878 115.5628 134.9981 116.6775C135.0145 118.4641 134.1746 123.8745 133.5291 126.1385C133.1573 127.442 133.1798 126.5235 133.6039 123.077C133.9369 120.3685 134.1267 118.1953 134.0254 118.2469C133.9239 118.299 133.5486 119.8344 133.1908 121.6588C131.9643 127.9137 131.4885 129.5713 130.5699 130.7846C130.0641 131.4525 129.4608 132.9713 129.2297 134.159C128.9386 135.6537 127.7193 138.2532 125.2712 142.6006C123.325 146.0553 121.4673 149.158 121.1421 149.4947C120.8171 149.8318 120.4885 150.7098 120.4119 151.446C120.2841 152.675 119.8762 153.1186 115.429 156.8669C110.6834 160.8669 109.3438 162.2776 110.8174 161.7246C113.3175 160.7858 106.4825 164.5842 102.9475 166.098C96.0646 169.0455 92.3032 169.472 82.7765 168.3858C79.9365 168.0619 77.195 167.8672 76.6847 167.9532C76.0868 168.0538 75.4162 167.7897 74.7987 167.2109C74.2406 166.6878 73.1138 166.1971 72.1014 166.0358C71.1445 165.8833 69.81 165.5215 69.1359 165.2319C68.4617 164.942 67.1004 164.5763 66.1112 164.4193C65.0533 164.2513 62.6998 163.2438 60.3965 161.9737C58.2424 160.7856 55.0351 159.0256 53.2691 158.0627C44.8472 153.471 43.0684 152.1987 36.8912 146.3448C33.3868 143.0242 30.7892 140.3292 30.4389 139.6507C29.3048 137.4538 28.0582 135.7959 27.814 136.1594C27.6435 136.4139 26.9598 135.5201 25.325 132.9046C24.0852 130.9209 23.0841 129.198 23.1003 129.076C23.1162 128.9538 24.5283 130.6114 26.2377 132.759C27.9467 134.9067 29.4897 136.7016 29.6662 136.7477C30.1684 136.8784 29.7565 136.2603 27.2157 133.0726C20.0704 124.1088 13.0195 112.4442 8.4418 102.013C7.2682 99.3394 6.15 97.0669 5.9564 96.9634C5.7629 96.8598 4.7045 93.854 3.6038 90.2842C2.5031 86.7135 1.7914 84.0607 2.0214 84.3887C2.2519 84.7168 3.2033 87.5219 4.1369 90.6227C5.4941 95.1317 5.954 96.3379 6.4357 96.6503C7.3032 97.2129 7.175 96.2532 6.1001 94.1347C5.0511 92.0675 4.569 90.5484 4.9975 90.66C5.3657 90.7561 2.4575 79.3055 1.7767 77.9781C1.4919 77.4229 1.4523 76.6417 1.6726 75.923C1.8873 75.2209 1.8229 73.7811 1.5092 72.2751C1.2242 70.9062 0.9746 69.2378 0.9551 68.5681C0.9354 67.8981 0.6802 66.2832 0.3876 64.9794C0.067 63.5496 -0.0616 61.1691 0.064 58.9828C0.1784 56.9885 0.3301 53.1794 0.401 50.5176C0.663 40.7017 1.1011 37.832 3.3233 31.3803C4.9321 26.7096 5.686 25.0659 6.7528 23.9027C7.5046 23.0831 8.1421 22.1632 8.1694 21.859C8.2046 21.4634 8.1088 21.4581 7.8326 21.8408C7.5774 22.1947 7.4701 22.2039 7.5162 21.8681C7.5953 21.2938 11.8905 16.5432 12.1872 16.7023C12.2931 16.7587 11.5203 18.2574 10.4698 20.0319C8.6681 23.0759 8.0877 24.3789 8.6671 24.0792C8.8033 24.0085 9.6445 22.7321 10.5362 21.2427C15.0162 13.7582 22.7088 6.3748 29.8367 2.7182C32.0041 1.6063 32.3042 1.5407 32.2734 2.1842ZM19.0508 13.4455C18.9654 14.1619 11.4108 24.6938 11.1014 24.528C10.7156 24.3216 13.8989 18.7733 15.6849 16.539C17.673 14.0521 19.1393 12.7046 19.0508 13.4455ZM25.9085 10.3853C25.7944 10.694 23.3251 13.2708 20.4215 16.1119C17.5181 18.953 15.032 21.4248 14.8977 21.6054C14.7631 21.7862 14.5711 21.7739 14.4711 21.5789C14.2311 21.1114 17.6693 16.8533 20.3297 14.323C22.8382 11.9385 26.2162 9.5539 25.9085 10.3853ZM40.1164 7.4901C40.8417 7.3386 40.397 7.6097 38.984 8.1808C37.7046 8.6974 36.5763 9.0825 36.4771 9.0361C36.1707 8.893 38.8522 7.7539 40.1164 7.4901ZM59.2209 0.9374C59.9035 0.9133 64.7436 2.3645 64.882 2.6343C64.9264 2.7208 64.3254 2.8321 63.5463 2.8819C62.0444 2.978 60.4567 2.5571 58.9667 1.6684C58.0373 1.1141 58.0851 0.9769 59.2209 0.9374ZM37.6803 12.1016C40.1445 11.2415 45.7463 10.122 46.6536 10.3085C47.0745 10.3948 47.1156 10.5397 46.8695 11.0651C46.6509 11.531 46.0796 11.7679 44.8511 11.9022C42.9125 12.1138 32.5088 17.0916 28.9401 19.5148C27.4304 20.5401 27.0349 20.7081 27.5029 20.1257C27.8576 19.6836 28.1336 19.1177 28.1163 18.8683C28.0988 18.619 28.0494 18.4357 28.0063 18.4612C27.9634 18.487 26.8058 19.5077 25.4337 20.7296C24.0616 21.9511 22.7582 23.0333 22.5372 23.1337C21.5541 23.5797 26.1066 18.3268 27.7255 17.1469C29.9596 15.5185 34.5354 13.1991 37.6803 12.1016ZM38.0079 12.7179C38.5555 12.5454 39.1962 12.5045 39.4316 12.6271C39.939 12.8919 36.0833 14.9384 32.2896 16.4178C30.6464 17.0584 29.8443 17.2226 30.0759 16.8709C30.4485 16.3049 36.2237 13.2815 38.0079 12.7179ZM51.9756 6.3748C52.7772 6.2986 55.0302 6.5419 56.9821 6.9157C60.7044 7.6282 61.4975 7.4953 59.2715 6.5316C58.5429 6.2166 58.0775 5.8916 58.2374 5.8096C58.9507 5.4437 62.4045 6.3513 64.3299 7.4112C66.7677 8.753 71.7945 10.3793 74.7747 10.7911C76.2099 10.9891 77.0702 11.3458 77.6299 11.9738C78.0705 12.4683 79.5336 13.4887 80.8812 14.2414C84.4249 16.221 90.4278 20.3458 94.4037 23.5337C101.4929 29.2181 105.0473 33.0567 113.2811 43.922C117.4467 49.4188 119.3859 52.5255 120.8989 56.1243C122.3794 59.6465 121.4058 58.6093 119.1369 54.2482C117.0615 50.2586 113.6486 45.1284 110.8678 41.8186C108.6321 39.1571 107.5913 38.2513 108.6848 39.9187C109.7495 41.5417 108.4724 40.345 105.5877 37.0165C98.5276 28.8705 93.7083 24.3492 88.0736 20.5855C74.8017 11.7206 62.6082 7.2998 52.2761 7.6073C50.8339 7.6503 49.6417 7.5086 49.6265 7.2926C49.5905 6.7796 50.192 6.5446 51.9756 6.3748ZM26.669 21.3662C26.543 21.5636 26.2488 21.7146 26.0152 21.7017C25.7814 21.6893 25.8847 21.528 26.2443 21.3435C26.6041 21.1593 26.795 21.1697 26.669 21.3662ZM69.2538 4.0649C71.1183 4.7005 73.7025 5.5427 74.9973 5.9367C76.2919 6.3309 77.4338 6.6884 77.5344 6.7317C77.6357 6.7748 77.6869 7.0463 77.649 7.3346C77.5609 7.9998 73.9042 6.9314 71.9729 5.676C71.22 5.1867 70.117 4.8007 69.522 4.8176C68.4821 4.8481 65.7712 3.6148 65.8336 3.14C65.8507 3.0134 67.3894 3.4297 69.2538 4.0649ZM65.4509 10.505C67.6935 11.0491 71.3826 12.7288 71.7025 13.352C71.7936 13.53 70.4294 13.1171 68.671 12.4344C62.3005 9.9619 61.6803 9.5903 65.4509 10.505ZM12.735 36.3514C12.8966 36.9918 9.6092 47.5803 9.3002 47.4148C8.8755 47.1877 9.0978 46.1993 10.6138 41.5754C12.5826 35.5694 12.555 35.6379 12.735 36.3514ZM76.7629 18.8603C83.1682 21.8878 84.8427 22.8801 84.7485 23.5923C84.6962 23.9905 83.604 23.4459 78.6172 20.5345C74.0935 17.8936 73.408 17.2748 76.7629 18.8603ZM89.7608 27.2093C93.5639 30.1733 99.05 35.2953 98.9808 35.8178C98.9624 35.9561 96.3799 33.8804 93.2418 31.2049C90.1037 28.53 87.0217 25.9066 86.3933 25.3759C85.7653 24.8451 85.3756 24.3465 85.5279 24.2684C85.6804 24.1902 87.5853 25.5138 89.7608 27.2093ZM110.2377 47.4051C110.8749 48.2527 112.0382 50.0131 112.8231 51.317C113.6083 52.6208 114.6494 54.3424 115.1368 55.1424C115.9977 56.5548 117.5285 60.0977 117.2028 59.9234C116.9327 59.7788 109.3467 46.9222 109.2086 46.374C109.1376 46.093 109.601 46.557 110.2377 47.4051ZM111.6882 51.7841C111.8369 51.9074 112.7686 53.4163 113.7586 55.1377C115.8526 58.777 115.0415 58.1482 112.5514 54.2013C111.1999 52.059 110.855 51.0928 111.6882 51.7841ZM21.2957 111.2322C21.9769 111.972 23.1665 113.6712 23.9389 115.0078C24.7118 116.3446 25.822 118.2422 26.406 119.2253C27.8621 121.6752 27.4205 121.2959 25.223 118.2086C24.2094 116.7846 23.2294 115.5803 23.0453 115.5327C22.6607 115.432 19.6347 110.1011 19.8892 109.9724C19.9817 109.9255 20.6145 110.4924 21.2957 111.2322ZM119.3464 65.1551C119.7195 65.8823 119.8183 66.2073 119.5661 65.8773C119.3136 65.5476 119.0082 64.9525 118.8875 64.5552C118.7667 64.1578 118.9731 64.4276 119.3464 65.1551ZM22.833 123.9071C25.2877 126.9891 29.8758 133.4989 29.5299 133.409C28.5521 133.1541 20.6718 122.4602 21.2454 122.1658C21.3239 122.1256 22.0381 122.9092 22.833 123.9071ZM124.5125 80.9222C124.7259 81.3687 124.7097 81.4902 124.4718 81.2317C124.2562 80.9977 124.0983 80.6668 124.1208 80.4968C124.1432 80.3268 124.3193 80.5182 124.5125 80.9222ZM129.4952 91.228C129.9619 92.1373 130.5392 98.1823 130.2984 99.6334C130.0538 101.1063 129.9774 101.2379 129.9047 100.3129C129.8548 99.682 129.6686 97.3611 129.4903 95.1551C129.1963 91.5148 129.1974 90.6474 129.4952 91.228ZM127.5915 105.9148C127.6932 113.0562 127.5964 114.8624 127.0974 115.1185C126.5781 115.3849 126.5763 115.3815 126.6666 114.2654C126.7164 113.6489 126.8775 110.989 127.0246 108.3538C127.1715 105.7183 127.3512 103.532 127.4237 103.4947C127.4965 103.4574 127.5722 104.5465 127.5915 105.9148ZM63.9955 150.7832C69.0504 152.7963 70.6823 153.6181 69.5521 153.5817C68.8152 153.5581 58.6956 149.5782 58.5018 149.2357C58.1195 148.5605 59.1322 148.846 63.9955 150.7832ZM126.4545 119.1107C125.8066 123.0222 124.5554 127.4339 123.3969 129.8942C122.4989 131.8004 122.463 131.8337 122.7235 130.5137C123.2608 127.7935 126.4312 116.4156 126.6827 116.3037C126.8236 116.2413 126.7207 117.5047 126.4545 119.1107ZM131.2195 117.656C131.2449 119.2311 130.8848 120.813 130.4498 121.036C130.1236 121.2033 130.3615 118.8798 130.8282 117.3414C130.9504 116.9383 131.0726 116.5352 131.1948 116.1321C131.203 116.6401 131.2112 117.1481 131.2195 117.656ZM64.9392 157.3049C67.4851 158.4108 68.494 159.0265 68.096 159.2306C67.7209 159.4231 62.238 157.191 62.0141 156.7544C61.6085 155.9638 62.0397 156.0453 64.9392 157.3049ZM66.3801 156.4959C67.667 157.1207 68.3694 157.6283 68.1315 157.7613C67.6895 158.0095 64.1355 156.1808 64.1942 155.7356C64.2149 155.5804 65.1984 155.9225 66.3801 156.4959ZM132.1682 122.4793C132.0797 123.3467 131.8928 124.1146 131.7536 124.1861C131.4108 124.3619 131.6 122.389 132.0049 121.5645C132.2367 121.0917 132.2836 121.3536 132.1682 122.4793ZM71.7364 158.3179C72.0389 158.3965 72.264 158.631 72.2363 158.8389C72.2092 159.0467 71.9475 159.0887 71.6553 158.9324C70.9671 158.564 71.0242 158.1323 71.7364 158.3179ZM89.774 156.2533C93.9812 156.4869 96.8687 155.5739 103.3284 151.968C106.4389 150.2318 109.4047 148.4734 109.9197 148.0604C110.6524 147.4721 110.7696 147.4544 110.4588 147.9775C110.2402 148.3452 108.8814 149.6088 107.4393 150.7857C102.5656 154.7611 95.062 157.1654 88.1414 156.9678C87.6345 156.9534 87.1426 156.7921 87.0489 156.6098C86.8025 156.1293 87.0233 156.1006 89.774 156.2533ZM89.2565 160.4747C90.8853 160.3191 91.4807 160.5994 90.5435 161.0805C89.8203 161.4513 87.5466 161.4439 87.3548 161.0699C87.2068 160.7815 87.7176 160.6216 89.2565 160.4747ZM128.8531 143.7699C128.7893 144.2125 126.3791 147.9463 126.0469 148.1167C125.6198 148.3359 126.174 146.1077 126.7101 145.4518C127.7887 144.133 128.9294 143.2376 128.8531 143.7699ZM86.5923 170.352C88.9744 170.4685 90.9111 170.6525 90.897 170.7607C90.8718 170.951 82.0735 170.7861 81.6931 170.5882C81.0488 170.2531 82.8235 170.1676 86.5923 170.352ZM124.1051 151.2589C123.811 151.7598 123.1552 152.51 122.6478 152.9264C122.0237 153.4385 122.1517 153.1595 123.0425 152.0657C124.563 150.1992 124.8602 149.9731 124.1051 151.2589ZM118.3979 157.5023C117.9157 158.1678 116.6328 159.0638 114.9928 159.8809C114.1156 160.3177 113.2384 160.7546 112.3611 161.1914C113.23 160.6309 114.099 160.0704 114.9679 159.5098C116.4015 158.5854 117.9337 157.5151 118.373 157.1317C119.1613 156.4433 119.1618 156.4483 118.3979 157.5023Z"></path></svg> 